<svg width="1200" height="800" viewBox="0 0 1200 800" fill="none" xmlns="http://www.w3.org/2000/svg">
<g clip-path="url(#clip0_1_4)">
<rect width="1200" height="800" fill="white"/>
<path d="M0 0H1200V800H0V0Z" fill="#E5E7EB"/>
<mask id="path-2-inside-1_1_4" fill="white">
<path d="M0 387H1200V631H0V387Z"/>
</mask>
<path d="M0 387H1200V631H0V387Z" fill="#D9D9D9"/>
<path d="M0 387V397H1200V387V377H0V387ZM1200 631V621H0V631V641H1200V631Z" fill="#BFB9B9" mask="url(#path-2-inside-1_1_4)"/>
<rect x="36" y="501.971" width="110.568" height="13.446" fill="#E3DB32"/>
<path d="M184 509.014L140.809 536.739V481.289L184 509.014Z" fill="#E3DB32"/>
<rect x="281" y="501.971" width="110.568" height="13.446" fill="#E3DB32"/>
<path d="M429 509.014L385.809 536.739V481.289L429 509.014Z" fill="#E3DB32"/>
<rect x="526" y="501.971" width="110.568" height="13.446" fill="#E3DB32"/>
<path d="M674 509.014L630.809 536.739V481.289L674 509.014Z" fill="#E3DB32"/>
<rect x="771" y="501.971" width="110.568" height="13.446" fill="#E3DB32"/>
<path d="M919 509.014L875.809 536.739V481.289L919 509.014Z" fill="#E3DB32"/>
<rect x="1016" y="501.971" width="110.568" height="13.446" fill="#E3DB32"/>
<path d="M1164 509.014L1120.81 536.739V481.289L1164 509.014Z" fill="#E3DB32"/>
<g filter="url(#filter0_d_1_4)">
<mask id="path-14-inside-2_1_4" fill="white">
<path d="M613 43H770V357H613V43Z"/>
</mask>
<path d="M613 43H770V357H613V43Z" fill="#F9FAFB"/>
<path d="M613 43V39H609V43H613ZM770 43H774V39H770V43ZM613 43V47H770V43V39H613V43ZM770 43H766V357H770H774V43H770ZM613 357H617V43H613H609V357H613Z" fill="#E3DA32" mask="url(#path-14-inside-2_1_4)"/>
<path opacity="0.5" d="M669 201.318C667.288 201.318 665.83 200.852 664.625 199.92C663.42 198.981 662.5 197.621 661.864 195.841C661.227 194.053 660.909 191.894 660.909 189.364C660.909 186.848 661.227 184.701 661.864 182.92C662.508 181.133 663.432 179.769 664.636 178.83C665.848 177.883 667.303 177.409 669 177.409C670.697 177.409 672.148 177.883 673.352 178.83C674.564 179.769 675.489 181.133 676.125 182.92C676.769 184.701 677.091 186.848 677.091 189.364C677.091 191.894 676.773 194.053 676.136 195.841C675.5 197.621 674.58 198.981 673.375 199.92C672.17 200.852 670.712 201.318 669 201.318ZM669 198.818C670.697 198.818 672.015 198 672.955 196.364C673.894 194.727 674.364 192.394 674.364 189.364C674.364 187.348 674.148 185.633 673.716 184.216C673.292 182.799 672.678 181.72 671.875 180.977C671.08 180.235 670.121 179.864 669 179.864C667.318 179.864 666.004 180.693 665.057 182.352C664.11 184.004 663.636 186.341 663.636 189.364C663.636 191.379 663.848 193.091 664.273 194.5C664.697 195.909 665.307 196.981 666.102 197.716C666.905 198.451 667.871 198.818 669 198.818ZM689 201.318C687.288 201.318 685.83 200.852 684.625 199.92C683.42 198.981 682.5 197.621 681.864 195.841C681.227 194.053 680.909 191.894 680.909 189.364C680.909 186.848 681.227 184.701 681.864 182.92C682.508 181.133 683.432 179.769 684.636 178.83C685.848 177.883 687.303 177.409 689 177.409C690.697 177.409 692.148 177.883 693.352 178.83C694.564 179.769 695.489 181.133 696.125 182.92C696.769 184.701 697.091 186.848 697.091 189.364C697.091 191.894 696.773 194.053 696.136 195.841C695.5 197.621 694.58 198.981 693.375 199.92C692.17 200.852 690.712 201.318 689 201.318ZM689 198.818C690.697 198.818 692.015 198 692.955 196.364C693.894 194.727 694.364 192.394 694.364 189.364C694.364 187.348 694.148 185.633 693.716 184.216C693.292 182.799 692.678 181.72 691.875 180.977C691.08 180.235 690.121 179.864 689 179.864C687.318 179.864 686.004 180.693 685.057 182.352C684.11 184.004 683.636 186.341 683.636 189.364C683.636 191.379 683.848 193.091 684.273 194.5C684.697 195.909 685.307 196.981 686.102 197.716C686.905 198.451 687.871 198.818 689 198.818ZM709.591 177.727V201H706.773V180.682H706.636L700.955 184.455V181.591L706.773 177.727H709.591Z" fill="black"/>
<mask id="path-17-inside-3_1_4" fill="white">
<path d="M802 43H959V357H802V43Z"/>
</mask>
<path d="M802 43H959V357H802V43Z" fill="#F9FAFB"/>
<path d="M802 43V39H798V43H802ZM959 43H963V39H959V43ZM802 43V47H959V43V39H802V43ZM959 43H955V357H959H963V43H959ZM802 357H806V43H802H798V357H802Z" fill="#E3DB32" mask="url(#path-17-inside-3_1_4)"/>
<path opacity="0.5" d="M858 201.318C856.288 201.318 854.83 200.852 853.625 199.92C852.42 198.981 851.5 197.621 850.864 195.841C850.227 194.053 849.909 191.894 849.909 189.364C849.909 186.848 850.227 184.701 850.864 182.92C851.508 181.133 852.432 179.769 853.636 178.83C854.848 177.883 856.303 177.409 858 177.409C859.697 177.409 861.148 177.883 862.352 178.83C863.564 179.769 864.489 181.133 865.125 182.92C865.769 184.701 866.091 186.848 866.091 189.364C866.091 191.894 865.773 194.053 865.136 195.841C864.5 197.621 863.58 198.981 862.375 199.92C861.17 200.852 859.712 201.318 858 201.318ZM858 198.818C859.697 198.818 861.015 198 861.955 196.364C862.894 194.727 863.364 192.394 863.364 189.364C863.364 187.348 863.148 185.633 862.716 184.216C862.292 182.799 861.678 181.72 860.875 180.977C860.08 180.235 859.121 179.864 858 179.864C856.318 179.864 855.004 180.693 854.057 182.352C853.11 184.004 852.636 186.341 852.636 189.364C852.636 191.379 852.848 193.091 853.273 194.5C853.697 195.909 854.307 196.981 855.102 197.716C855.905 198.451 856.871 198.818 858 198.818ZM878 201.318C876.288 201.318 874.83 200.852 873.625 199.92C872.42 198.981 871.5 197.621 870.864 195.841C870.227 194.053 869.909 191.894 869.909 189.364C869.909 186.848 870.227 184.701 870.864 182.92C871.508 181.133 872.432 179.769 873.636 178.83C874.848 177.883 876.303 177.409 878 177.409C879.697 177.409 881.148 177.883 882.352 178.83C883.564 179.769 884.489 181.133 885.125 182.92C885.769 184.701 886.091 186.848 886.091 189.364C886.091 191.894 885.773 194.053 885.136 195.841C884.5 197.621 883.58 198.981 882.375 199.92C881.17 200.852 879.712 201.318 878 201.318ZM878 198.818C879.697 198.818 881.015 198 881.955 196.364C882.894 194.727 883.364 192.394 883.364 189.364C883.364 187.348 883.148 185.633 882.716 184.216C882.292 182.799 881.678 181.72 880.875 180.977C880.08 180.235 879.121 179.864 878 179.864C876.318 179.864 875.004 180.693 874.057 182.352C873.11 184.004 872.636 186.341 872.636 189.364C872.636 191.379 872.848 193.091 873.273 194.5C873.697 195.909 874.307 196.981 875.102 197.716C875.905 198.451 876.871 198.818 878 198.818ZM890.409 201V198.955L898.091 190.545C898.992 189.561 899.735 188.705 900.318 187.977C900.902 187.242 901.333 186.553 901.614 185.909C901.902 185.258 902.045 184.576 902.045 183.864C902.045 183.045 901.848 182.337 901.455 181.739C901.068 181.14 900.538 180.678 899.864 180.352C899.189 180.027 898.432 179.864 897.591 179.864C896.697 179.864 895.917 180.049 895.25 180.42C894.591 180.784 894.08 181.295 893.716 181.955C893.36 182.614 893.182 183.386 893.182 184.273H890.5C890.5 182.909 890.814 181.712 891.443 180.682C892.072 179.652 892.928 178.848 894.011 178.273C895.102 177.697 896.326 177.409 897.682 177.409C899.045 177.409 900.254 177.697 901.307 178.273C902.36 178.848 903.186 179.625 903.784 180.602C904.383 181.58 904.682 182.667 904.682 183.864C904.682 184.72 904.527 185.557 904.216 186.375C903.913 187.186 903.383 188.091 902.625 189.091C901.875 190.083 900.833 191.295 899.5 192.727L894.273 198.318V198.5H905.091V201H890.409Z" fill="black"/>
<path d="M991 43H1148V357H991V43Z" fill="#F9FAFB"/>
<path d="M991 43V41H989V43H991ZM1148 43H1150V41H1148V43ZM991 43V45H1148V43V41H991V43ZM1148 43H1146V357H1148H1150V43H1148ZM991 357H993V43H991H989V357H991Z" fill="#E3DB32"/>
<path opacity="0.5" d="M1047 201.318C1045.29 201.318 1043.83 200.852 1042.62 199.92C1041.42 198.981 1040.5 197.621 1039.86 195.841C1039.23 194.053 1038.91 191.894 1038.91 189.364C1038.91 186.848 1039.23 184.701 1039.86 182.92C1040.51 181.133 1041.43 179.769 1042.64 178.83C1043.85 177.883 1045.3 177.409 1047 177.409C1048.7 177.409 1050.15 177.883 1051.35 178.83C1052.56 179.769 1053.49 181.133 1054.12 182.92C1054.77 184.701 1055.09 186.848 1055.09 189.364C1055.09 191.894 1054.77 194.053 1054.14 195.841C1053.5 197.621 1052.58 198.981 1051.38 199.92C1050.17 200.852 1048.71 201.318 1047 201.318ZM1047 198.818C1048.7 198.818 1050.02 198 1050.95 196.364C1051.89 194.727 1052.36 192.394 1052.36 189.364C1052.36 187.348 1052.15 185.633 1051.72 184.216C1051.29 182.799 1050.68 181.72 1049.88 180.977C1049.08 180.235 1048.12 179.864 1047 179.864C1045.32 179.864 1044 180.693 1043.06 182.352C1042.11 184.004 1041.64 186.341 1041.64 189.364C1041.64 191.379 1041.85 193.091 1042.27 194.5C1042.7 195.909 1043.31 196.981 1044.1 197.716C1044.91 198.451 1045.87 198.818 1047 198.818ZM1067 201.318C1065.29 201.318 1063.83 200.852 1062.62 199.92C1061.42 198.981 1060.5 197.621 1059.86 195.841C1059.23 194.053 1058.91 191.894 1058.91 189.364C1058.91 186.848 1059.23 184.701 1059.86 182.92C1060.51 181.133 1061.43 179.769 1062.64 178.83C1063.85 177.883 1065.3 177.409 1067 177.409C1068.7 177.409 1070.15 177.883 1071.35 178.83C1072.56 179.769 1073.49 181.133 1074.12 182.92C1074.77 184.701 1075.09 186.848 1075.09 189.364C1075.09 191.894 1074.77 194.053 1074.14 195.841C1073.5 197.621 1072.58 198.981 1071.38 199.92C1070.17 200.852 1068.71 201.318 1067 201.318ZM1067 198.818C1068.7 198.818 1070.02 198 1070.95 196.364C1071.89 194.727 1072.36 192.394 1072.36 189.364C1072.36 187.348 1072.15 185.633 1071.72 184.216C1071.29 182.799 1070.68 181.72 1069.88 180.977C1069.08 180.235 1068.12 179.864 1067 179.864C1065.32 179.864 1064 180.693 1063.06 182.352C1062.11 184.004 1061.64 186.341 1061.64 189.364C1061.64 191.379 1061.85 193.091 1062.27 194.5C1062.7 195.909 1063.31 196.981 1064.1 197.716C1064.91 198.451 1065.87 198.818 1067 198.818ZM1087.27 201.318C1085.77 201.318 1084.44 201.061 1083.26 200.545C1082.09 200.03 1081.17 199.314 1080.48 198.398C1079.8 197.473 1079.42 196.402 1079.36 195.182H1082.23C1082.29 195.932 1082.55 196.58 1083 197.125C1083.45 197.663 1084.05 198.08 1084.78 198.375C1085.52 198.67 1086.33 198.818 1087.23 198.818C1088.23 198.818 1089.11 198.644 1089.89 198.295C1090.66 197.947 1091.27 197.462 1091.7 196.841C1092.14 196.22 1092.36 195.5 1092.36 194.682C1092.36 193.826 1092.15 193.072 1091.73 192.42C1091.3 191.761 1090.68 191.246 1089.86 190.875C1089.05 190.504 1088.05 190.318 1086.86 190.318H1085V187.818H1086.86C1087.79 187.818 1088.6 187.652 1089.3 187.318C1090 186.985 1090.55 186.515 1090.94 185.909C1091.34 185.303 1091.55 184.591 1091.55 183.773C1091.55 182.985 1091.37 182.299 1091.02 181.716C1090.67 181.133 1090.18 180.678 1089.55 180.352C1088.92 180.027 1088.17 179.864 1087.32 179.864C1086.52 179.864 1085.76 180.011 1085.05 180.307C1084.34 180.595 1083.77 181.015 1083.32 181.568C1082.87 182.114 1082.63 182.773 1082.59 183.545H1079.86C1079.91 182.326 1080.28 181.258 1080.97 180.341C1081.66 179.417 1082.56 178.697 1083.67 178.182C1084.79 177.667 1086.02 177.409 1087.36 177.409C1088.8 177.409 1090.04 177.701 1091.07 178.284C1092.1 178.86 1092.89 179.621 1093.44 180.568C1094 181.515 1094.27 182.538 1094.27 183.636C1094.27 184.947 1093.93 186.064 1093.24 186.989C1092.56 187.913 1091.63 188.553 1090.45 188.909V189.091C1091.92 189.333 1093.07 189.958 1093.9 190.966C1094.72 191.966 1095.14 193.205 1095.14 194.682C1095.14 195.947 1094.79 197.083 1094.1 198.091C1093.42 199.091 1092.49 199.879 1091.31 200.455C1090.13 201.03 1088.78 201.318 1087.27 201.318Z" fill="black"/>
<path d="M417 43H574V357H417V43Z" fill="#A59D9D"/>
<path d="M418 116V160L574.5 261.5V250V215L418 116Z" fill="#1E1E1E" fill-opacity="0.27"/>
<path d="M418 189V233L574.5 334.5V323V288L418 189Z" fill="#1E1E1E" fill-opacity="0.27"/>
<path d="M418 43V87L574.5 188.5V177V142L418 43Z" fill="#1E1E1E" fill-opacity="0.27"/>
</g>
<rect x="46" y="24" width="332" height="324" fill="#3C395C"/>
</g>
<defs>
<filter id="filter0_d_1_4" x="415" y="40" width="737" height="320" filterUnits="userSpaceOnUse" color-interpolation-filters="sRGB">
<feFlood flood-opacity="0" result="BackgroundImageFix"/>
<feColorMatrix in="SourceAlpha" type="matrix" values="0 0 0 0 0 0 0 0 0 0 0 0 0 0 0 0 0 0 127 0" result="hardAlpha"/>
<feOffset dy="1"/>
<feGaussianBlur stdDeviation="1"/>
<feComposite in2="hardAlpha" operator="out"/>
<feColorMatrix type="matrix" values="0 0 0 0 0 0 0 0 0 0 0 0 0 0 0 0 0 0 0.2 0"/>
<feBlend mode="normal" in2="BackgroundImageFix" result="effect1_dropShadow_1_4"/>
<feBlend mode="normal" in="SourceGraphic" in2="effect1_dropShadow_1_4" result="shape"/>
</filter>
<clipPath id="clip0_1_4">
<rect width="1200" height="800" fill="white"/>
</clipPath>
</defs>
</svg>
