<svg width="1200" height="800" viewBox="0 0 1200 800" fill="none" xmlns="http://www.w3.org/2000/svg">
<g clip-path="url(#clip0_1_4)">
<rect width="1200" height="800" fill="white"/>
<path d="M0 0H1200V800H0V0Z" fill="#E5E7EB"/>
<mask id="path-2-inside-1_1_4" fill="white">
<path d="M0 387H1200V631H0V387Z"/>
</mask>
<path d="M0 387H1200V631H0V387Z" fill="#D9D9D9"/>
<path d="M0 387V397H1200V387V377H0V387ZM1200 631V621H0V631V641H1200V631Z" fill="#BFB9B9" mask="url(#path-2-inside-1_1_4)"/>
<rect x="36" y="501.971" width="110.568" height="13.446" fill="#E3DB32"/>
<path d="M184 509.014L140.809 536.739V481.289L184 509.014Z" fill="#E3DB32"/>
<rect x="281" y="501.971" width="110.568" height="13.446" fill="#E3DB32"/>
<path d="M429 509.014L385.809 536.739V481.289L429 509.014Z" fill="#E3DB32"/>
<rect x="526" y="501.971" width="110.568" height="13.446" fill="#E3DB32"/>
<path d="M674 509.014L630.809 536.739V481.289L674 509.014Z" fill="#E3DB32"/>
<rect x="771" y="501.971" width="110.568" height="13.446" fill="#E3DB32"/>
<path d="M919 509.014L875.809 536.739V481.289L919 509.014Z" fill="#E3DB32"/>
<rect x="1016" y="501.971" width="110.568" height="13.446" fill="#E3DB32"/>
<path d="M1164 509.014L1120.81 536.739V481.289L1164 509.014Z" fill="#E3DB32"/>
<g filter="url(#filter0_d_1_4)">
<mask id="path-14-inside-2_1_4" fill="white">
<path d="M613 43H770V357H613V43Z"/>
</mask>
<path d="M613 43H770V357H613V43Z" fill="#F9FAFB"/>
<path d="M613 43V39H609V43H613ZM770 43H774V39H770V43ZM613 43V47H770V43V39H613V43ZM770 43H766V357H770H774V43H770ZM613 357H617V43H613H609V357H613Z" fill="#E3DA32" mask="url(#path-14-inside-2_1_4)"/>
<path opacity="0.5" d="M677.773 201H674.818L683.364 177.727H686.273L694.818 201H691.864L684.909 181.409H684.727L677.773 201ZM678.864 191.909H690.773V194.409H678.864V191.909ZM705.122 177.727V201H702.304V180.682H702.168L696.486 184.455V181.591L702.304 177.727H705.122Z" fill="black"/>
<mask id="path-17-inside-3_1_4" fill="white">
<path d="M802 43H959V357H802V43Z"/>
</mask>
<path d="M802 43H959V357H802V43Z" fill="#F9FAFB"/>
<path d="M802 43V39H798V43H802ZM959 43H963V39H959V43ZM802 43V47H959V43V39H802V43ZM959 43H955V357H959H963V43H959ZM802 357H806V43H802H798V357H802Z" fill="#E3DB32" mask="url(#path-17-inside-3_1_4)"/>
<path opacity="0.5" d="M865.773 201H862.818L871.364 177.727H874.273L882.818 201H879.864L872.909 181.409H872.727L865.773 201ZM866.864 191.909H878.773V194.409H866.864V191.909ZM886.034 201V198.955L893.716 190.545C894.617 189.561 895.36 188.705 895.943 187.977C896.527 187.242 896.958 186.553 897.239 185.909C897.527 185.258 897.67 184.576 897.67 183.864C897.67 183.045 897.473 182.337 897.08 181.739C896.693 181.14 896.163 180.678 895.489 180.352C894.814 180.027 894.057 179.864 893.216 179.864C892.322 179.864 891.542 180.049 890.875 180.42C890.216 180.784 889.705 181.295 889.341 181.955C888.985 182.614 888.807 183.386 888.807 184.273H886.125C886.125 182.909 886.439 181.712 887.068 180.682C887.697 179.652 888.553 178.848 889.636 178.273C890.727 177.697 891.951 177.409 893.307 177.409C894.67 177.409 895.879 177.697 896.932 178.273C897.985 178.848 898.811 179.625 899.409 180.602C900.008 181.58 900.307 182.667 900.307 183.864C900.307 184.72 900.152 185.557 899.841 186.375C899.538 187.186 899.008 188.091 898.25 189.091C897.5 190.083 896.458 191.295 895.125 192.727L889.898 198.318V198.5H900.716V201H886.034Z" fill="black"/>
<path d="M991 43H1148V357H991V43Z" fill="#F9FAFB"/>
<path d="M991 43V41H989V43H991ZM1148 43H1150V41H1148V43ZM991 43V45H1148V43V41H991V43ZM1148 43H1146V357H1148H1150V43H1148ZM991 357H993V43H991H989V357H991Z" fill="#E3DB32"/>
<path opacity="0.5" d="M1053.77 201H1050.82L1059.36 177.727H1062.27L1070.82 201H1067.86L1060.91 181.409H1060.73L1053.77 201ZM1054.86 191.909H1066.77V194.409H1054.86V191.909ZM1081.9 201.318C1080.4 201.318 1079.06 201.061 1077.89 200.545C1076.72 200.03 1075.79 199.314 1075.1 198.398C1074.42 197.473 1074.05 196.402 1073.99 195.182H1076.85C1076.91 195.932 1077.17 196.58 1077.62 197.125C1078.08 197.663 1078.67 198.08 1079.41 198.375C1080.14 198.67 1080.96 198.818 1081.85 198.818C1082.85 198.818 1083.74 198.644 1084.51 198.295C1085.28 197.947 1085.89 197.462 1086.33 196.841C1086.77 196.22 1086.99 195.5 1086.99 194.682C1086.99 193.826 1086.78 193.072 1086.35 192.42C1085.93 191.761 1085.31 191.246 1084.49 190.875C1083.67 190.504 1082.67 190.318 1081.49 190.318H1079.62V187.818H1081.49C1082.41 187.818 1083.22 187.652 1083.92 187.318C1084.63 186.985 1085.17 186.515 1085.57 185.909C1085.97 185.303 1086.17 184.591 1086.17 183.773C1086.17 182.985 1086 182.299 1085.65 181.716C1085.3 181.133 1084.81 180.678 1084.17 180.352C1083.54 180.027 1082.8 179.864 1081.94 179.864C1081.14 179.864 1080.38 180.011 1079.67 180.307C1078.97 180.595 1078.39 181.015 1077.94 181.568C1077.5 182.114 1077.25 182.773 1077.22 183.545H1074.49C1074.53 182.326 1074.9 181.258 1075.59 180.341C1076.28 179.417 1077.18 178.697 1078.3 178.182C1079.42 177.667 1080.65 177.409 1081.99 177.409C1083.43 177.409 1084.66 177.701 1085.69 178.284C1086.72 178.86 1087.52 179.621 1088.07 180.568C1088.62 181.515 1088.9 182.538 1088.9 183.636C1088.9 184.947 1088.55 186.064 1087.86 186.989C1087.18 187.913 1086.25 188.553 1085.08 188.909V189.091C1086.55 189.333 1087.7 189.958 1088.52 190.966C1089.35 191.966 1089.76 193.205 1089.76 194.682C1089.76 195.947 1089.42 197.083 1088.73 198.091C1088.05 199.091 1087.11 199.879 1085.93 200.455C1084.75 201.03 1083.41 201.318 1081.9 201.318Z" fill="black"/>
</g>
<rect x="46" y="24" width="332" height="324" fill="#3C395C"/>
</g>
<defs>
<filter id="filter0_d_1_4" x="611" y="40" width="541" height="320" filterUnits="userSpaceOnUse" color-interpolation-filters="sRGB">
<feFlood flood-opacity="0" result="BackgroundImageFix"/>
<feColorMatrix in="SourceAlpha" type="matrix" values="0 0 0 0 0 0 0 0 0 0 0 0 0 0 0 0 0 0 127 0" result="hardAlpha"/>
<feOffset dy="1"/>
<feGaussianBlur stdDeviation="1"/>
<feComposite in2="hardAlpha" operator="out"/>
<feColorMatrix type="matrix" values="0 0 0 0 0 0 0 0 0 0 0 0 0 0 0 0 0 0 0.2 0"/>
<feBlend mode="normal" in2="BackgroundImageFix" result="effect1_dropShadow_1_4"/>
<feBlend mode="normal" in="SourceGraphic" in2="effect1_dropShadow_1_4" result="shape"/>
</filter>
<clipPath id="clip0_1_4">
<rect width="1200" height="800" fill="white"/>
</clipPath>
</defs>
</svg>
